<svg xmlns="http://www.w3.org/2000/svg" xmlns:xlink="http://www.w3.org/1999/xlink" contentStyleType="text/css" data-diagram-type="SEQUENCE" height="748px" preserveAspectRatio="none" style="width:870px;height:748px;background:#FFFFFF;" version="1.1" viewBox="0 0 870 748" width="870px" zoomAndPan="magnify"><defs/><g><rect fill="#DDDDDD" height="736.9141" style="stroke:#181818;stroke-width:0.5;" width="131.3955" x="44.2666" y="6"/><text fill="#000000" font-family="sans-serif" font-size="13" font-weight="bold" lengthAdjust="spacing" textLength="19.0684" x="100.4302" y="18.0669">PC</text><rect fill="#DDDDDD" height="736.9141" style="stroke:#181818;stroke-width:0.5;" width="339.7573" x="351.3325" y="6"/><text fill="#000000" font-family="sans-serif" font-size="13" font-weight="bold" lengthAdjust="spacing" textLength="73.4233" x="484.4995" y="18.0669">Controller</text><g><title>Modbus_Master</title><rect fill="#000000" fill-opacity="0.00000" height="649.1875" width="8" x="106.4644" y="56.4297"/><line style="stroke:#181818;stroke-width:0.5;stroke-dasharray:5.0,5.0;" x1="109.9644" x2="109.9644" y1="56.4297" y2="705.6172"/></g><g><title>Modbus_Slave</title><rect fill="#000000" fill-opacity="0.00000" height="649.1875" width="8" x="408.752" y="56.4297"/><line style="stroke:#181818;stroke-width:0.5;stroke-dasharray:5.0,5.0;" x1="412.252" x2="412.252" y1="56.4297" y2="705.6172"/></g><g><title>Firmware</title><rect fill="#000000" fill-opacity="0.00000" height="649.1875" width="8" x="643.7227" y="56.4297"/><line style="stroke:#181818;stroke-width:0.5;stroke-dasharray:5.0,5.0;" x1="647.2227" x2="647.2227" y1="56.4297" y2="705.6172"/></g><rect fill="#E2E2F0" height="30.2969" rx="2.5" ry="2.5" style="stroke:#181818;stroke-width:0.5;" width="123.3955" x="48.2666" y="25.1328"/><text fill="#000000" font-family="sans-serif" font-size="14" lengthAdjust="spacing" textLength="109.3955" x="55.2666" y="45.1279">Modbus_Master</text><rect fill="#E2E2F0" height="30.2969" rx="2.5" ry="2.5" style="stroke:#181818;stroke-width:0.5;" width="113.8389" x="355.3325" y="25.1328"/><text fill="#000000" font-family="sans-serif" font-size="14" lengthAdjust="spacing" textLength="99.8389" x="362.3325" y="45.1279">Modbus_Slave</text><rect fill="#E2E2F0" height="30.2969" rx="2.5" ry="2.5" style="stroke:#181818;stroke-width:0.5;" width="79.7344" x="607.3555" y="25.1328"/><text fill="#000000" font-family="sans-serif" font-size="14" lengthAdjust="spacing" textLength="65.7344" x="614.3555" y="45.1279">Firmware</text><rect fill="#E2E2F0" height="30.2969" rx="2.5" ry="2.5" style="stroke:#181818;stroke-width:0.5;" width="123.3955" x="48.2666" y="705.6172"/><text fill="#000000" font-family="sans-serif" font-size="14" lengthAdjust="spacing" textLength="109.3955" x="55.2666" y="725.6123">Modbus_Master</text><rect fill="#E2E2F0" height="30.2969" rx="2.5" ry="2.5" style="stroke:#181818;stroke-width:0.5;" width="113.8389" x="355.3325" y="705.6172"/><text fill="#000000" font-family="sans-serif" font-size="14" lengthAdjust="spacing" textLength="99.8389" x="362.3325" y="725.6123">Modbus_Slave</text><rect fill="#E2E2F0" height="30.2969" rx="2.5" ry="2.5" style="stroke:#181818;stroke-width:0.5;" width="79.7344" x="607.3555" y="705.6172"/><text fill="#000000" font-family="sans-serif" font-size="14" lengthAdjust="spacing" textLength="65.7344" x="614.3555" y="725.6123">Firmware</text><polygon fill="#181818" points="400.252,81.5625,410.252,85.5625,400.252,89.5625,404.252,85.5625" style="stroke:#181818;stroke-width:1;"/><line style="stroke:#181818;stroke-width:1;" x1="109.9644" x2="406.252" y1="85.5625" y2="85.5625"/><text fill="#000000" font-family="sans-serif" font-size="13" lengthAdjust="spacing" textLength="278.2876" x="116.9644" y="80.4966">Set command params in Holding Registers</text><polygon fill="#181818" points="400.252,125.8281,410.252,129.8281,400.252,133.8281,404.252,129.8281" style="stroke:#181818;stroke-width:1;"/><line style="stroke:#181818;stroke-width:1;" x1="109.9644" x2="406.252" y1="129.8281" y2="129.8281"/><text fill="#000000" font-family="sans-serif" font-size="13" lengthAdjust="spacing" textLength="253.8999" x="116.9644" y="109.6294">Set command code in Holding Register</text><text fill="#000000" font-family="sans-serif" font-size="13" lengthAdjust="spacing" textLength="84.0874" x="116.9644" y="124.7622">on address 0</text><polygon fill="#181818" points="400.252,170.0938,410.252,174.0938,400.252,178.0938,404.252,174.0938" style="stroke:#181818;stroke-width:1;"/><line style="stroke:#181818;stroke-width:1;" x1="109.9644" x2="406.252" y1="174.0938" y2="174.0938"/><text fill="#000000" font-family="sans-serif" font-size="13" lengthAdjust="spacing" textLength="91.8823" x="116.9644" y="153.895">Set status coil</text><text fill="#000000" font-family="sans-serif" font-size="13" lengthAdjust="spacing" textLength="113.6738" x="116.9644" y="169.0278">on address 1 to 0</text><path d="M29,142.8281 L29,167.8281 L104,167.8281 L104,152.8281 L94,142.8281 L29,142.8281" fill="#FEFFDD" style="stroke:#181818;stroke-width:0.5;"/><path d="M94,142.8281 L94,152.8281 L104,152.8281 L94,142.8281" fill="#FEFFDD" style="stroke:#181818;stroke-width:0.5;"/><text fill="#000000" font-family="sans-serif" font-size="13" lengthAdjust="spacing" textLength="54.9644" x="35" y="159.895">Optional</text><polygon fill="#181818" points="400.252,214.3594,410.252,218.3594,400.252,222.3594,404.252,218.3594" style="stroke:#181818;stroke-width:1;"/><line style="stroke:#181818;stroke-width:1;" x1="109.9644" x2="406.252" y1="218.3594" y2="218.3594"/><text fill="#000000" font-family="sans-serif" font-size="13" lengthAdjust="spacing" textLength="116.8223" x="116.9644" y="198.1606">Set command coil</text><text fill="#000000" font-family="sans-serif" font-size="13" lengthAdjust="spacing" textLength="113.6738" x="116.9644" y="213.2935">on address 0 to 1</text><polygon fill="#181818" points="635.2227,214.3594,645.2227,218.3594,635.2227,222.3594,639.2227,218.3594" style="stroke:#181818;stroke-width:1;"/><line style="stroke:#181818;stroke-width:1;" x1="412.252" x2="641.2227" y1="218.3594" y2="218.3594"/><text fill="#000000" font-family="sans-serif" font-size="13" lengthAdjust="spacing" textLength="187.0527" x="419.252" y="213.2935">Send command to execution</text><line style="stroke:#181818;stroke-width:1;" x1="647.2227" x2="689.2227" y1="247.4922" y2="247.4922"/><line style="stroke:#181818;stroke-width:1;" x1="689.2227" x2="689.2227" y1="247.4922" y2="260.4922"/><line style="stroke:#181818;stroke-width:1;" x1="648.2227" x2="689.2227" y1="260.4922" y2="260.4922"/><polygon fill="#181818" points="658.2227,256.4922,648.2227,260.4922,658.2227,264.4922,654.2227,260.4922" style="stroke:#181818;stroke-width:1;"/><text fill="#000000" font-family="sans-serif" font-size="13" lengthAdjust="spacing" textLength="121.4053" x="654.2227" y="242.4263">Execute command</text><path d="M8,272.4922 L84.624,272.4922 L84.624,279.625 L74.624,289.625 L8,289.625 L8,272.4922" fill="#EEEEEE" style="stroke:#000000;stroke-width:1.5;"/><rect fill="none" height="145.6641" style="stroke:#000000;stroke-width:1.5;" width="680.2227" x="8" y="272.4922"/><text fill="#000000" font-family="sans-serif" font-size="13" font-weight="bold" lengthAdjust="spacing" textLength="31.624" x="23" y="285.5591">loop</text><text fill="#000000" font-family="sans-serif" font-size="11" font-weight="bold" lengthAdjust="spacing" textLength="179.2334" x="99.624" y="284.7026">[during command execution]</text><path d="M396.252,303.625 L472.876,303.625 L472.876,310.7578 L462.876,320.7578 L396.252,320.7578 L396.252,303.625" fill="#EEEEEE" style="stroke:#000000;stroke-width:1.5;"/><rect fill="none" height="56.2656" style="stroke:#000000;stroke-width:1.5;" width="266.9707" x="396.252" y="303.625"/><text fill="#000000" font-family="sans-serif" font-size="13" font-weight="bold" lengthAdjust="spacing" textLength="31.624" x="411.252" y="316.6919">loop</text><text fill="#000000" font-family="sans-serif" font-size="11" font-weight="bold" lengthAdjust="spacing" textLength="140.3521" x="487.876" y="315.8354">[by REG_HLD_RATE hz]</text><polygon fill="#181818" points="423.252,347.8906,413.252,351.8906,423.252,355.8906,419.252,351.8906" style="stroke:#181818;stroke-width:1;"/><line style="stroke:#181818;stroke-width:1;" x1="417.252" x2="646.2227" y1="351.8906" y2="351.8906"/><text fill="#000000" font-family="sans-serif" font-size="13" lengthAdjust="spacing" textLength="210.9707" x="429.252" y="346.8247">Update motors status &amp; position</text><polygon fill="#181818" points="120.9644,406.1563,110.9644,410.1563,120.9644,414.1563,116.9644,410.1563" style="stroke:#181818;stroke-width:1;"/><line style="stroke:#181818;stroke-width:1;" x1="114.9644" x2="411.252" y1="410.1563" y2="410.1563"/><text fill="#000000" font-family="sans-serif" font-size="13" lengthAdjust="spacing" textLength="125.9756" x="126.9644" y="389.9575">Get Input Registers</text><text fill="#000000" font-family="sans-serif" font-size="13" lengthAdjust="spacing" textLength="95.4497" x="126.9644" y="405.0903">for actual data</text><path d="M29,378.8906 L29,403.8906 L104,403.8906 L104,388.8906 L94,378.8906 L29,378.8906" fill="#FEFFDD" style="stroke:#181818;stroke-width:0.5;"/><path d="M94,378.8906 L94,388.8906 L104,388.8906 L94,378.8906" fill="#FEFFDD" style="stroke:#181818;stroke-width:0.5;"/><text fill="#000000" font-family="sans-serif" font-size="13" lengthAdjust="spacing" textLength="54.9644" x="35" y="395.9575">Optional</text><line style="stroke:#181818;stroke-width:1;" x1="647.2227" x2="689.2227" y1="453.2891" y2="453.2891"/><line style="stroke:#181818;stroke-width:1;" x1="689.2227" x2="689.2227" y1="453.2891" y2="466.2891"/><line style="stroke:#181818;stroke-width:1;" x1="648.2227" x2="689.2227" y1="466.2891" y2="466.2891"/><polygon fill="#181818" points="658.2227,462.2891,648.2227,466.2891,658.2227,470.2891,654.2227,466.2891" style="stroke:#181818;stroke-width:1;"/><text fill="#000000" font-family="sans-serif" font-size="13" lengthAdjust="spacing" textLength="134.5132" x="654.2227" y="448.2231">Execute motors stop</text><polygon fill="#181818" points="423.252,506.5547,413.252,510.5547,423.252,514.5547,419.252,510.5547" style="stroke:#181818;stroke-width:1;"/><line style="stroke:#181818;stroke-width:1;" x1="417.252" x2="646.2227" y1="510.5547" y2="510.5547"/><text fill="#000000" font-family="sans-serif" font-size="13" lengthAdjust="spacing" textLength="186.5894" x="429.252" y="490.356">Set status code of command</text><text fill="#000000" font-family="sans-serif" font-size="13" lengthAdjust="spacing" textLength="197.3042" x="429.252" y="505.4888">to Input Register on address 1</text><polygon fill="#181818" points="423.252,550.8203,413.252,554.8203,423.252,558.8203,419.252,554.8203" style="stroke:#181818;stroke-width:1;"/><line style="stroke:#181818;stroke-width:1;" x1="417.252" x2="646.2227" y1="554.8203" y2="554.8203"/><text fill="#000000" font-family="sans-serif" font-size="13" lengthAdjust="spacing" textLength="116.8223" x="429.252" y="534.6216">Set command coil</text><text fill="#000000" font-family="sans-serif" font-size="13" lengthAdjust="spacing" textLength="113.6738" x="429.252" y="549.7544">on address 0 to 0</text><polygon fill="#181818" points="423.252,595.0859,413.252,599.0859,423.252,603.0859,419.252,599.0859" style="stroke:#181818;stroke-width:1;"/><line style="stroke:#181818;stroke-width:1;" x1="417.252" x2="646.2227" y1="599.0859" y2="599.0859"/><text fill="#000000" font-family="sans-serif" font-size="13" lengthAdjust="spacing" textLength="91.8823" x="429.252" y="578.8872">Set status coil</text><text fill="#000000" font-family="sans-serif" font-size="13" lengthAdjust="spacing" textLength="113.6738" x="429.252" y="594.02">on address 1 to 1</text><path d="M652.2227,567.8203 L652.2227,592.8203 L863.2227,592.8203 L863.2227,577.8203 L853.2227,567.8203 L652.2227,567.8203" fill="#FEFFDD" style="stroke:#181818;stroke-width:0.5;"/><path d="M853.2227,567.8203 L853.2227,577.8203 L863.2227,577.8203 L853.2227,567.8203" fill="#FEFFDD" style="stroke:#181818;stroke-width:0.5;"/><text fill="#000000" font-family="sans-serif" font-size="13" lengthAdjust="spacing" textLength="190.3599" x="658.2227" y="584.8872">Command execution finished</text><polygon fill="#181818" points="120.9644,639.3516,110.9644,643.3516,120.9644,647.3516,116.9644,643.3516" style="stroke:#181818;stroke-width:1;"/><line style="stroke:#181818;stroke-width:1;" x1="114.9644" x2="411.252" y1="643.3516" y2="643.3516"/><text fill="#000000" font-family="sans-serif" font-size="13" lengthAdjust="spacing" textLength="93.7041" x="126.9644" y="623.1528">Get status coil</text><text fill="#000000" font-family="sans-serif" font-size="13" lengthAdjust="spacing" textLength="109.0781" x="126.9644" y="638.2856">and check it to 1</text><polygon fill="#181818" points="120.9644,683.6172,110.9644,687.6172,120.9644,691.6172,116.9644,687.6172" style="stroke:#181818;stroke-width:1;"/><line style="stroke:#181818;stroke-width:1;" x1="114.9644" x2="411.252" y1="687.6172" y2="687.6172"/><text fill="#000000" font-family="sans-serif" font-size="13" lengthAdjust="spacing" textLength="119.2026" x="126.9644" y="667.4185">Get Input Register</text><text fill="#000000" font-family="sans-serif" font-size="13" lengthAdjust="spacing" textLength="185.6563" x="126.9644" y="682.5513">on address 1 for status code</text><!--SRC=[VL9DJyCm3BttLvWTTaFQhXoGq5W1YGgqmMtIb3NU5f76LUBozUjnKihMKRX5VHzzVlPPxTMkKi18dy2-mMn3xp1wd8soMdasfQcLOoX8RvgmBbHWzA0251aw3S9j-JDoxCbQz8EwfLMl66NB7feRNxqfdv3ynx20yqjOmWKiaQ6agb82Y4nL0Oo3MxBQk1qiS6TYcZ0iA4dZ47tbo87IscC8CEbh0ojkWaYDxT6cm2HSHunWSSiPm4FDXfooANK4_afnOZM9LjDiB4oXvucUU2rVG7p7iedcMTvHvkaJTgpC4jMW6n_dwfG76K32Dn-mcD-iR- -lrukhfpdiFmK1oBkOpxLMubaHam_Tw6EeAPXlcnWiMiapfIr4TIF3tRcwuKF_AxSbkOcI6sL1F9NmZwiwAglrJ7N9u_U0Fs7af_dWPcIfjEs6NZdfgvy6ZjVMz_X_9vC_VZXq2jFs5BpPxUE0izCLmDOu4_Qe3zVHAx1ddYBjiNm1mwtvFsMVP8d57rNp1G00]--></g></svg>